<mxfile host="Electron" modified="2024-11-17T16:39:50.238Z" agent="Mozilla/5.0 (X11; Linux x86_64) AppleWebKit/537.36 (KHTML, like Gecko) draw.io/24.6.4 Chrome/124.0.6367.207 Electron/30.0.6 Safari/537.36" etag="JhpzlimG5cVBW0PWAc-C" version="24.6.4" type="device" pages="2">
  <diagram name="Page-1" id="mNUyZFJGthcSgVpoV0Tr">
    <mxGraphModel dx="2355" dy="2242" grid="1" gridSize="10" guides="1" tooltips="1" connect="1" arrows="1" fold="1" page="1" pageScale="1" pageWidth="1169" pageHeight="827" math="0" shadow="0">
      <root>
        <mxCell id="0" />
        <mxCell id="1" parent="0" />
        <mxCell id="MLPq3Getp3hgsPLm3B74-73" value="" style="rounded=0;whiteSpace=wrap;html=1;" parent="1" vertex="1">
          <mxGeometry x="1140" y="33" width="690" height="437" as="geometry" />
        </mxCell>
        <mxCell id="MLPq3Getp3hgsPLm3B74-24" value="" style="rounded=0;whiteSpace=wrap;html=1;" parent="1" vertex="1">
          <mxGeometry x="110" y="360" width="780" height="330" as="geometry" />
        </mxCell>
        <mxCell id="MLPq3Getp3hgsPLm3B74-12" value="" style="rounded=0;whiteSpace=wrap;html=1;" parent="1" vertex="1">
          <mxGeometry x="110" y="70" width="750" height="260" as="geometry" />
        </mxCell>
        <mxCell id="MLPq3Getp3hgsPLm3B74-5" style="edgeStyle=orthogonalEdgeStyle;rounded=0;orthogonalLoop=1;jettySize=auto;html=1;exitX=1;exitY=0.5;exitDx=0;exitDy=0;entryX=0;entryY=0.5;entryDx=0;entryDy=0;" parent="1" source="MLPq3Getp3hgsPLm3B74-1" target="MLPq3Getp3hgsPLm3B74-2" edge="1">
          <mxGeometry relative="1" as="geometry" />
        </mxCell>
        <mxCell id="MLPq3Getp3hgsPLm3B74-1" value="User Login" style="rounded=1;whiteSpace=wrap;html=1;" parent="1" vertex="1">
          <mxGeometry x="150" y="100" width="120" height="60" as="geometry" />
        </mxCell>
        <mxCell id="MLPq3Getp3hgsPLm3B74-6" style="edgeStyle=orthogonalEdgeStyle;rounded=0;orthogonalLoop=1;jettySize=auto;html=1;exitX=1;exitY=0.5;exitDx=0;exitDy=0;entryX=0;entryY=0.5;entryDx=0;entryDy=0;" parent="1" source="MLPq3Getp3hgsPLm3B74-2" target="MLPq3Getp3hgsPLm3B74-3" edge="1">
          <mxGeometry relative="1" as="geometry" />
        </mxCell>
        <mxCell id="MLPq3Getp3hgsPLm3B74-2" value="Restraunt List" style="rounded=1;whiteSpace=wrap;html=1;" parent="1" vertex="1">
          <mxGeometry x="320" y="100" width="120" height="60" as="geometry" />
        </mxCell>
        <mxCell id="MLPq3Getp3hgsPLm3B74-7" style="edgeStyle=orthogonalEdgeStyle;rounded=0;orthogonalLoop=1;jettySize=auto;html=1;exitX=1;exitY=0.5;exitDx=0;exitDy=0;entryX=0;entryY=0.5;entryDx=0;entryDy=0;" parent="1" source="MLPq3Getp3hgsPLm3B74-3" target="MLPq3Getp3hgsPLm3B74-4" edge="1">
          <mxGeometry relative="1" as="geometry" />
        </mxCell>
        <mxCell id="MLPq3Getp3hgsPLm3B74-3" value="Select Restraunt" style="rounded=1;whiteSpace=wrap;html=1;" parent="1" vertex="1">
          <mxGeometry x="470" y="100" width="120" height="60" as="geometry" />
        </mxCell>
        <mxCell id="MLPq3Getp3hgsPLm3B74-9" style="edgeStyle=orthogonalEdgeStyle;rounded=0;orthogonalLoop=1;jettySize=auto;html=1;exitX=0.5;exitY=1;exitDx=0;exitDy=0;entryX=0.5;entryY=0;entryDx=0;entryDy=0;" parent="1" source="MLPq3Getp3hgsPLm3B74-4" target="MLPq3Getp3hgsPLm3B74-8" edge="1">
          <mxGeometry relative="1" as="geometry" />
        </mxCell>
        <mxCell id="MLPq3Getp3hgsPLm3B74-4" value="Slect Dishes, Add ons" style="rounded=1;whiteSpace=wrap;html=1;" parent="1" vertex="1">
          <mxGeometry x="680" y="100" width="120" height="60" as="geometry" />
        </mxCell>
        <mxCell id="MLPq3Getp3hgsPLm3B74-11" value="" style="edgeStyle=orthogonalEdgeStyle;rounded=0;orthogonalLoop=1;jettySize=auto;html=1;" parent="1" source="MLPq3Getp3hgsPLm3B74-8" target="MLPq3Getp3hgsPLm3B74-10" edge="1">
          <mxGeometry relative="1" as="geometry" />
        </mxCell>
        <mxCell id="MLPq3Getp3hgsPLm3B74-8" value="Payment" style="rounded=1;whiteSpace=wrap;html=1;" parent="1" vertex="1">
          <mxGeometry x="140" y="200" width="120" height="60" as="geometry" />
        </mxCell>
        <mxCell id="MLPq3Getp3hgsPLm3B74-21" value="" style="edgeStyle=orthogonalEdgeStyle;rounded=0;orthogonalLoop=1;jettySize=auto;html=1;" parent="1" source="MLPq3Getp3hgsPLm3B74-10" target="MLPq3Getp3hgsPLm3B74-20" edge="1">
          <mxGeometry relative="1" as="geometry" />
        </mxCell>
        <mxCell id="MLPq3Getp3hgsPLm3B74-10" value="Order Confirmation" style="whiteSpace=wrap;html=1;rounded=1;" parent="1" vertex="1">
          <mxGeometry x="470" y="200" width="120" height="60" as="geometry" />
        </mxCell>
        <mxCell id="MLPq3Getp3hgsPLm3B74-13" value="User Flow" style="text;html=1;align=center;verticalAlign=middle;resizable=0;points=[];autosize=1;strokeColor=none;fillColor=none;" parent="1" vertex="1">
          <mxGeometry x="120" y="48" width="80" height="30" as="geometry" />
        </mxCell>
        <mxCell id="MLPq3Getp3hgsPLm3B74-16" value="" style="edgeStyle=orthogonalEdgeStyle;rounded=0;orthogonalLoop=1;jettySize=auto;html=1;" parent="1" source="MLPq3Getp3hgsPLm3B74-14" target="MLPq3Getp3hgsPLm3B74-15" edge="1">
          <mxGeometry relative="1" as="geometry" />
        </mxCell>
        <mxCell id="MLPq3Getp3hgsPLm3B74-14" value="Restraunt Manager Login" style="rounded=1;whiteSpace=wrap;html=1;" parent="1" vertex="1">
          <mxGeometry x="150" y="384" width="120" height="60" as="geometry" />
        </mxCell>
        <mxCell id="MLPq3Getp3hgsPLm3B74-91" style="edgeStyle=orthogonalEdgeStyle;rounded=0;orthogonalLoop=1;jettySize=auto;html=1;exitX=1;exitY=0.5;exitDx=0;exitDy=0;entryX=0;entryY=0.5;entryDx=0;entryDy=0;" parent="1" source="MLPq3Getp3hgsPLm3B74-15" target="MLPq3Getp3hgsPLm3B74-90" edge="1">
          <mxGeometry relative="1" as="geometry" />
        </mxCell>
        <mxCell id="MLPq3Getp3hgsPLm3B74-15" value="Pending Order List" style="whiteSpace=wrap;html=1;rounded=1;" parent="1" vertex="1">
          <mxGeometry x="320" y="384" width="120" height="60" as="geometry" />
        </mxCell>
        <mxCell id="MLPq3Getp3hgsPLm3B74-79" style="edgeStyle=orthogonalEdgeStyle;rounded=0;orthogonalLoop=1;jettySize=auto;html=1;exitX=1;exitY=0.75;exitDx=0;exitDy=0;entryX=0;entryY=0.25;entryDx=0;entryDy=0;" parent="1" source="MLPq3Getp3hgsPLm3B74-20" target="MLPq3Getp3hgsPLm3B74-36" edge="1">
          <mxGeometry relative="1" as="geometry" />
        </mxCell>
        <mxCell id="MLPq3Getp3hgsPLm3B74-20" value="Order Status" style="whiteSpace=wrap;html=1;rounded=1;" parent="1" vertex="1">
          <mxGeometry x="680" y="200" width="120" height="60" as="geometry" />
        </mxCell>
        <mxCell id="MLPq3Getp3hgsPLm3B74-57" value="" style="edgeStyle=orthogonalEdgeStyle;rounded=0;orthogonalLoop=1;jettySize=auto;html=1;" parent="1" source="MLPq3Getp3hgsPLm3B74-22" target="MLPq3Getp3hgsPLm3B74-56" edge="1">
          <mxGeometry relative="1" as="geometry">
            <Array as="points">
              <mxPoint x="730" y="460" />
              <mxPoint x="210" y="460" />
            </Array>
          </mxGeometry>
        </mxCell>
        <mxCell id="MLPq3Getp3hgsPLm3B74-96" style="edgeStyle=orthogonalEdgeStyle;rounded=0;orthogonalLoop=1;jettySize=auto;html=1;exitX=1;exitY=0.5;exitDx=0;exitDy=0;entryX=0;entryY=1;entryDx=0;entryDy=0;" parent="1" source="MLPq3Getp3hgsPLm3B74-22" target="MLPq3Getp3hgsPLm3B74-36" edge="1">
          <mxGeometry relative="1" as="geometry" />
        </mxCell>
        <mxCell id="MLPq3Getp3hgsPLm3B74-22" value="Order Status" style="whiteSpace=wrap;html=1;rounded=1;" parent="1" vertex="1">
          <mxGeometry x="670" y="384" width="120" height="60" as="geometry" />
        </mxCell>
        <mxCell id="MLPq3Getp3hgsPLm3B74-25" value="Restraunt Flow" style="text;html=1;align=center;verticalAlign=middle;resizable=0;points=[];autosize=1;strokeColor=none;fillColor=none;" parent="1" vertex="1">
          <mxGeometry x="110" y="340" width="100" height="30" as="geometry" />
        </mxCell>
        <mxCell id="MLPq3Getp3hgsPLm3B74-28" value="" style="edgeStyle=orthogonalEdgeStyle;rounded=0;orthogonalLoop=1;jettySize=auto;html=1;" parent="1" source="MLPq3Getp3hgsPLm3B74-26" target="MLPq3Getp3hgsPLm3B74-27" edge="1">
          <mxGeometry relative="1" as="geometry" />
        </mxCell>
        <mxCell id="MLPq3Getp3hgsPLm3B74-26" value="Driver Login" style="rounded=1;whiteSpace=wrap;html=1;" parent="1" vertex="1">
          <mxGeometry x="1169" y="75" width="120" height="60" as="geometry" />
        </mxCell>
        <mxCell id="MLPq3Getp3hgsPLm3B74-30" value="" style="edgeStyle=orthogonalEdgeStyle;rounded=0;orthogonalLoop=1;jettySize=auto;html=1;" parent="1" source="MLPq3Getp3hgsPLm3B74-27" target="MLPq3Getp3hgsPLm3B74-29" edge="1">
          <mxGeometry relative="1" as="geometry" />
        </mxCell>
        <mxCell id="MLPq3Getp3hgsPLm3B74-27" value="Order List" style="whiteSpace=wrap;html=1;rounded=1;" parent="1" vertex="1">
          <mxGeometry x="1400" y="70" width="130" height="70" as="geometry" />
        </mxCell>
        <mxCell id="MLPq3Getp3hgsPLm3B74-65" value="" style="edgeStyle=orthogonalEdgeStyle;rounded=0;orthogonalLoop=1;jettySize=auto;html=1;" parent="1" source="MLPq3Getp3hgsPLm3B74-29" target="MLPq3Getp3hgsPLm3B74-64" edge="1">
          <mxGeometry relative="1" as="geometry" />
        </mxCell>
        <mxCell id="MLPq3Getp3hgsPLm3B74-29" value="Accept Order" style="whiteSpace=wrap;html=1;rounded=1;" parent="1" vertex="1">
          <mxGeometry x="1610" y="75" width="120" height="60" as="geometry" />
        </mxCell>
        <mxCell id="MLPq3Getp3hgsPLm3B74-68" value="" style="edgeStyle=orthogonalEdgeStyle;rounded=0;orthogonalLoop=1;jettySize=auto;html=1;" parent="1" source="MLPq3Getp3hgsPLm3B74-32" target="MLPq3Getp3hgsPLm3B74-67" edge="1">
          <mxGeometry relative="1" as="geometry" />
        </mxCell>
        <mxCell id="MLPq3Getp3hgsPLm3B74-32" value="Recieve Order" style="whiteSpace=wrap;html=1;rounded=1;" parent="1" vertex="1">
          <mxGeometry x="1445" y="215" width="120" height="60" as="geometry" />
        </mxCell>
        <mxCell id="MLPq3Getp3hgsPLm3B74-80" style="edgeStyle=orthogonalEdgeStyle;rounded=0;orthogonalLoop=1;jettySize=auto;html=1;exitX=0;exitY=0;exitDx=0;exitDy=0;entryX=1;entryY=0.5;entryDx=0;entryDy=0;" parent="1" source="MLPq3Getp3hgsPLm3B74-36" target="MLPq3Getp3hgsPLm3B74-20" edge="1">
          <mxGeometry relative="1" as="geometry">
            <Array as="points">
              <mxPoint x="920" y="230" />
              <mxPoint x="920" y="230" />
            </Array>
          </mxGeometry>
        </mxCell>
        <mxCell id="MLPq3Getp3hgsPLm3B74-82" style="edgeStyle=orthogonalEdgeStyle;rounded=0;orthogonalLoop=1;jettySize=auto;html=1;exitX=0.25;exitY=0;exitDx=0;exitDy=0;entryX=0.25;entryY=1;entryDx=0;entryDy=0;" parent="1" source="MLPq3Getp3hgsPLm3B74-36" target="MLPq3Getp3hgsPLm3B74-51" edge="1">
          <mxGeometry relative="1" as="geometry" />
        </mxCell>
        <mxCell id="MLPq3Getp3hgsPLm3B74-36" value="Order Management" style="rounded=1;whiteSpace=wrap;html=1;" parent="1" vertex="1">
          <mxGeometry x="960" y="230" width="120" height="60" as="geometry" />
        </mxCell>
        <mxCell id="MLPq3Getp3hgsPLm3B74-78" style="edgeStyle=orthogonalEdgeStyle;rounded=0;orthogonalLoop=1;jettySize=auto;html=1;exitX=0;exitY=0.5;exitDx=0;exitDy=0;entryX=1;entryY=0.25;entryDx=0;entryDy=0;" parent="1" source="MLPq3Getp3hgsPLm3B74-42" target="MLPq3Getp3hgsPLm3B74-36" edge="1">
          <mxGeometry relative="1" as="geometry" />
        </mxCell>
        <mxCell id="MLPq3Getp3hgsPLm3B74-42" value="Delivered Order" style="whiteSpace=wrap;html=1;rounded=1;" parent="1" vertex="1">
          <mxGeometry x="1179.5" y="225" width="99" height="40" as="geometry" />
        </mxCell>
        <mxCell id="MLPq3Getp3hgsPLm3B74-83" style="edgeStyle=orthogonalEdgeStyle;rounded=0;orthogonalLoop=1;jettySize=auto;html=1;exitX=1;exitY=0.25;exitDx=0;exitDy=0;entryX=0;entryY=0.25;entryDx=0;entryDy=0;" parent="1" source="MLPq3Getp3hgsPLm3B74-51" target="MLPq3Getp3hgsPLm3B74-52" edge="1">
          <mxGeometry relative="1" as="geometry" />
        </mxCell>
        <mxCell id="MLPq3Getp3hgsPLm3B74-51" value="Driver Management" style="rounded=1;whiteSpace=wrap;html=1;" parent="1" vertex="1">
          <mxGeometry x="960" y="-100" width="120" height="60" as="geometry" />
        </mxCell>
        <mxCell id="MLPq3Getp3hgsPLm3B74-84" style="edgeStyle=orthogonalEdgeStyle;rounded=0;orthogonalLoop=1;jettySize=auto;html=1;exitX=0.25;exitY=1;exitDx=0;exitDy=0;entryX=0.25;entryY=0;entryDx=0;entryDy=0;" parent="1" source="MLPq3Getp3hgsPLm3B74-52" target="MLPq3Getp3hgsPLm3B74-27" edge="1">
          <mxGeometry relative="1" as="geometry" />
        </mxCell>
        <mxCell id="MLPq3Getp3hgsPLm3B74-85" style="edgeStyle=orthogonalEdgeStyle;rounded=0;orthogonalLoop=1;jettySize=auto;html=1;exitX=0;exitY=0.5;exitDx=0;exitDy=0;entryX=0.5;entryY=0;entryDx=0;entryDy=0;" parent="1" source="MLPq3Getp3hgsPLm3B74-52" target="MLPq3Getp3hgsPLm3B74-36" edge="1">
          <mxGeometry relative="1" as="geometry">
            <Array as="points">
              <mxPoint x="1370" y="-70" />
              <mxPoint x="1370" y="-20" />
              <mxPoint x="1020" y="-20" />
            </Array>
          </mxGeometry>
        </mxCell>
        <mxCell id="MLPq3Getp3hgsPLm3B74-52" value="Driver Assignment" style="rounded=1;whiteSpace=wrap;html=1;" parent="1" vertex="1">
          <mxGeometry x="1400" y="-100" width="120" height="60" as="geometry" />
        </mxCell>
        <mxCell id="MLPq3Getp3hgsPLm3B74-59" value="" style="edgeStyle=orthogonalEdgeStyle;rounded=0;orthogonalLoop=1;jettySize=auto;html=1;" parent="1" source="MLPq3Getp3hgsPLm3B74-56" target="MLPq3Getp3hgsPLm3B74-58" edge="1">
          <mxGeometry relative="1" as="geometry" />
        </mxCell>
        <mxCell id="MLPq3Getp3hgsPLm3B74-60" value="Yes" style="edgeLabel;html=1;align=center;verticalAlign=middle;resizable=0;points=[];" parent="MLPq3Getp3hgsPLm3B74-59" vertex="1" connectable="0">
          <mxGeometry x="-0.1033" y="2" relative="1" as="geometry">
            <mxPoint as="offset" />
          </mxGeometry>
        </mxCell>
        <mxCell id="MLPq3Getp3hgsPLm3B74-62" value="" style="edgeStyle=orthogonalEdgeStyle;rounded=0;orthogonalLoop=1;jettySize=auto;html=1;entryX=0;entryY=0.5;entryDx=0;entryDy=0;" parent="1" source="MLPq3Getp3hgsPLm3B74-56" target="MLPq3Getp3hgsPLm3B74-61" edge="1">
          <mxGeometry relative="1" as="geometry">
            <Array as="points">
              <mxPoint x="210" y="610" />
            </Array>
          </mxGeometry>
        </mxCell>
        <mxCell id="MLPq3Getp3hgsPLm3B74-63" value="No" style="edgeLabel;html=1;align=center;verticalAlign=middle;resizable=0;points=[];" parent="MLPq3Getp3hgsPLm3B74-62" vertex="1" connectable="0">
          <mxGeometry x="0.0451" relative="1" as="geometry">
            <mxPoint as="offset" />
          </mxGeometry>
        </mxCell>
        <mxCell id="MLPq3Getp3hgsPLm3B74-56" value="Order Completed?" style="rhombus;whiteSpace=wrap;html=1;rounded=1;" parent="1" vertex="1">
          <mxGeometry x="165" y="470" width="90" height="100" as="geometry" />
        </mxCell>
        <mxCell id="MLPq3Getp3hgsPLm3B74-75" style="edgeStyle=orthogonalEdgeStyle;rounded=0;orthogonalLoop=1;jettySize=auto;html=1;exitX=1;exitY=0.5;exitDx=0;exitDy=0;entryX=0.25;entryY=1;entryDx=0;entryDy=0;" parent="1" source="MLPq3Getp3hgsPLm3B74-58" target="MLPq3Getp3hgsPLm3B74-36" edge="1">
          <mxGeometry relative="1" as="geometry" />
        </mxCell>
        <mxCell id="MLPq3Getp3hgsPLm3B74-58" value="Order Ready for Pickup" style="whiteSpace=wrap;html=1;rounded=1;" parent="1" vertex="1">
          <mxGeometry x="670" y="490" width="120" height="60" as="geometry" />
        </mxCell>
        <mxCell id="MLPq3Getp3hgsPLm3B74-76" style="edgeStyle=orthogonalEdgeStyle;rounded=0;orthogonalLoop=1;jettySize=auto;html=1;exitX=1;exitY=0.5;exitDx=0;exitDy=0;" parent="1" source="MLPq3Getp3hgsPLm3B74-61" target="MLPq3Getp3hgsPLm3B74-36" edge="1">
          <mxGeometry relative="1" as="geometry" />
        </mxCell>
        <mxCell id="MLPq3Getp3hgsPLm3B74-61" value="Order Cancelled" style="whiteSpace=wrap;html=1;rounded=1;" parent="1" vertex="1">
          <mxGeometry x="670" y="580" width="120" height="60" as="geometry" />
        </mxCell>
        <mxCell id="MLPq3Getp3hgsPLm3B74-66" style="edgeStyle=orthogonalEdgeStyle;rounded=0;orthogonalLoop=1;jettySize=auto;html=1;exitX=0;exitY=0.5;exitDx=0;exitDy=0;entryX=1;entryY=0.5;entryDx=0;entryDy=0;" parent="1" source="MLPq3Getp3hgsPLm3B74-64" target="MLPq3Getp3hgsPLm3B74-32" edge="1">
          <mxGeometry relative="1" as="geometry" />
        </mxCell>
        <mxCell id="MLPq3Getp3hgsPLm3B74-64" value="Driver At Location?" style="rhombus;whiteSpace=wrap;html=1;rounded=1;" parent="1" vertex="1">
          <mxGeometry x="1630" y="205" width="80" height="80" as="geometry" />
        </mxCell>
        <mxCell id="MLPq3Getp3hgsPLm3B74-69" style="edgeStyle=orthogonalEdgeStyle;rounded=0;orthogonalLoop=1;jettySize=auto;html=1;exitX=0;exitY=0.5;exitDx=0;exitDy=0;entryX=1;entryY=0.5;entryDx=0;entryDy=0;" parent="1" source="MLPq3Getp3hgsPLm3B74-67" target="MLPq3Getp3hgsPLm3B74-42" edge="1">
          <mxGeometry relative="1" as="geometry" />
        </mxCell>
        <mxCell id="MLPq3Getp3hgsPLm3B74-70" value="Yes" style="edgeLabel;html=1;align=center;verticalAlign=middle;resizable=0;points=[];" parent="MLPq3Getp3hgsPLm3B74-69" vertex="1" connectable="0">
          <mxGeometry x="-0.0293" y="2" relative="1" as="geometry">
            <mxPoint as="offset" />
          </mxGeometry>
        </mxCell>
        <mxCell id="MLPq3Getp3hgsPLm3B74-72" value="" style="edgeStyle=orthogonalEdgeStyle;rounded=0;orthogonalLoop=1;jettySize=auto;html=1;" parent="1" source="MLPq3Getp3hgsPLm3B74-67" target="MLPq3Getp3hgsPLm3B74-71" edge="1">
          <mxGeometry relative="1" as="geometry" />
        </mxCell>
        <mxCell id="MLPq3Getp3hgsPLm3B74-67" value="Driver at Customer Locaiton?" style="rhombus;whiteSpace=wrap;html=1;rounded=1;" parent="1" vertex="1">
          <mxGeometry x="1320" y="182.5" width="90" height="125" as="geometry" />
        </mxCell>
        <mxCell id="MLPq3Getp3hgsPLm3B74-77" style="edgeStyle=orthogonalEdgeStyle;rounded=0;orthogonalLoop=1;jettySize=auto;html=1;exitX=0;exitY=0.5;exitDx=0;exitDy=0;entryX=0.5;entryY=1;entryDx=0;entryDy=0;" parent="1" source="MLPq3Getp3hgsPLm3B74-71" target="MLPq3Getp3hgsPLm3B74-36" edge="1">
          <mxGeometry relative="1" as="geometry" />
        </mxCell>
        <mxCell id="MLPq3Getp3hgsPLm3B74-71" value="On the way" style="whiteSpace=wrap;html=1;rounded=1;" parent="1" vertex="1">
          <mxGeometry x="1305" y="334" width="120" height="60" as="geometry" />
        </mxCell>
        <mxCell id="MLPq3Getp3hgsPLm3B74-74" value="Driver Flow" style="text;html=1;align=center;verticalAlign=middle;resizable=0;points=[];autosize=1;strokeColor=none;fillColor=none;" parent="1" vertex="1">
          <mxGeometry x="1150" y="8" width="80" height="30" as="geometry" />
        </mxCell>
        <mxCell id="MLPq3Getp3hgsPLm3B74-86" style="edgeStyle=orthogonalEdgeStyle;rounded=0;orthogonalLoop=1;jettySize=auto;html=1;exitX=1;exitY=0.5;exitDx=0;exitDy=0;entryX=0;entryY=0.5;entryDx=0;entryDy=0;" parent="1" source="MLPq3Getp3hgsPLm3B74-87" target="MLPq3Getp3hgsPLm3B74-88" edge="1">
          <mxGeometry relative="1" as="geometry" />
        </mxCell>
        <mxCell id="MLPq3Getp3hgsPLm3B74-87" value="Driver Registration" style="rounded=1;whiteSpace=wrap;html=1;" parent="1" vertex="1">
          <mxGeometry x="960" y="-190" width="120" height="60" as="geometry" />
        </mxCell>
        <mxCell id="MLPq3Getp3hgsPLm3B74-89" style="edgeStyle=orthogonalEdgeStyle;rounded=0;orthogonalLoop=1;jettySize=auto;html=1;exitX=1;exitY=0.5;exitDx=0;exitDy=0;entryX=0.5;entryY=0;entryDx=0;entryDy=0;" parent="1" source="MLPq3Getp3hgsPLm3B74-88" target="MLPq3Getp3hgsPLm3B74-52" edge="1">
          <mxGeometry relative="1" as="geometry" />
        </mxCell>
        <mxCell id="MLPq3Getp3hgsPLm3B74-88" value="Driver Lists" style="rounded=1;whiteSpace=wrap;html=1;" parent="1" vertex="1">
          <mxGeometry x="1161" y="-190" width="120" height="60" as="geometry" />
        </mxCell>
        <mxCell id="MLPq3Getp3hgsPLm3B74-92" style="edgeStyle=orthogonalEdgeStyle;rounded=0;orthogonalLoop=1;jettySize=auto;html=1;exitX=1;exitY=0.5;exitDx=0;exitDy=0;entryX=0;entryY=0.5;entryDx=0;entryDy=0;" parent="1" source="MLPq3Getp3hgsPLm3B74-90" target="MLPq3Getp3hgsPLm3B74-22" edge="1">
          <mxGeometry relative="1" as="geometry" />
        </mxCell>
        <mxCell id="MLPq3Getp3hgsPLm3B74-93" value="Yes" style="edgeLabel;html=1;align=center;verticalAlign=middle;resizable=0;points=[];" parent="MLPq3Getp3hgsPLm3B74-92" vertex="1" connectable="0">
          <mxGeometry x="-0.3143" y="-1" relative="1" as="geometry">
            <mxPoint as="offset" />
          </mxGeometry>
        </mxCell>
        <mxCell id="MLPq3Getp3hgsPLm3B74-94" style="edgeStyle=orthogonalEdgeStyle;rounded=0;orthogonalLoop=1;jettySize=auto;html=1;exitX=0.5;exitY=0;exitDx=0;exitDy=0;entryX=0.5;entryY=0;entryDx=0;entryDy=0;" parent="1" source="MLPq3Getp3hgsPLm3B74-90" target="MLPq3Getp3hgsPLm3B74-22" edge="1">
          <mxGeometry relative="1" as="geometry">
            <Array as="points">
              <mxPoint x="545" y="370" />
              <mxPoint x="730" y="370" />
            </Array>
          </mxGeometry>
        </mxCell>
        <mxCell id="MLPq3Getp3hgsPLm3B74-95" value="No" style="edgeLabel;html=1;align=center;verticalAlign=middle;resizable=0;points=[];" parent="MLPq3Getp3hgsPLm3B74-94" vertex="1" connectable="0">
          <mxGeometry x="-0.2794" relative="1" as="geometry">
            <mxPoint as="offset" />
          </mxGeometry>
        </mxCell>
        <mxCell id="MLPq3Getp3hgsPLm3B74-90" value="Order Accepted" style="rhombus;whiteSpace=wrap;html=1;" parent="1" vertex="1">
          <mxGeometry x="505" y="374" width="80" height="80" as="geometry" />
        </mxCell>
        <mxCell id="7G694Oz_WmN1lmUgNKPg-3" value="" style="edgeStyle=orthogonalEdgeStyle;rounded=0;orthogonalLoop=1;jettySize=auto;html=1;" edge="1" parent="1" source="7G694Oz_WmN1lmUgNKPg-1" target="7G694Oz_WmN1lmUgNKPg-2">
          <mxGeometry relative="1" as="geometry" />
        </mxCell>
        <mxCell id="7G694Oz_WmN1lmUgNKPg-1" value="New Order - C" style="rounded=1;whiteSpace=wrap;html=1;" vertex="1" parent="1">
          <mxGeometry x="135" y="880" width="120" height="60" as="geometry" />
        </mxCell>
        <mxCell id="7G694Oz_WmN1lmUgNKPg-5" value="" style="edgeStyle=orthogonalEdgeStyle;rounded=0;orthogonalLoop=1;jettySize=auto;html=1;" edge="1" parent="1" source="7G694Oz_WmN1lmUgNKPg-2" target="7G694Oz_WmN1lmUgNKPg-4">
          <mxGeometry relative="1" as="geometry" />
        </mxCell>
        <mxCell id="7G694Oz_WmN1lmUgNKPg-2" value="Order Management" style="whiteSpace=wrap;html=1;rounded=1;" vertex="1" parent="1">
          <mxGeometry x="335" y="880" width="120" height="60" as="geometry" />
        </mxCell>
        <mxCell id="7G694Oz_WmN1lmUgNKPg-7" style="edgeStyle=orthogonalEdgeStyle;rounded=0;orthogonalLoop=1;jettySize=auto;html=1;exitX=0;exitY=0.75;exitDx=0;exitDy=0;entryX=1;entryY=0.75;entryDx=0;entryDy=0;" edge="1" parent="1" source="7G694Oz_WmN1lmUgNKPg-4" target="7G694Oz_WmN1lmUgNKPg-2">
          <mxGeometry relative="1" as="geometry" />
        </mxCell>
        <mxCell id="7G694Oz_WmN1lmUgNKPg-8" value="OK" style="edgeLabel;html=1;align=center;verticalAlign=middle;resizable=0;points=[];" vertex="1" connectable="0" parent="7G694Oz_WmN1lmUgNKPg-7">
          <mxGeometry x="0.266" relative="1" as="geometry">
            <mxPoint as="offset" />
          </mxGeometry>
        </mxCell>
        <mxCell id="7G694Oz_WmN1lmUgNKPg-4" value="Driver Management" style="whiteSpace=wrap;html=1;rounded=1;" vertex="1" parent="1">
          <mxGeometry x="620" y="880" width="120" height="60" as="geometry" />
        </mxCell>
        <mxCell id="7G694Oz_WmN1lmUgNKPg-6" value="Req New Driver" style="text;html=1;align=center;verticalAlign=middle;resizable=0;points=[];autosize=1;strokeColor=none;fillColor=none;" vertex="1" parent="1">
          <mxGeometry x="470" y="888" width="110" height="30" as="geometry" />
        </mxCell>
        <mxCell id="7G694Oz_WmN1lmUgNKPg-11" value="" style="edgeStyle=orthogonalEdgeStyle;rounded=0;orthogonalLoop=1;jettySize=auto;html=1;" edge="1" parent="1" source="7G694Oz_WmN1lmUgNKPg-9" target="7G694Oz_WmN1lmUgNKPg-10">
          <mxGeometry relative="1" as="geometry" />
        </mxCell>
        <mxCell id="7G694Oz_WmN1lmUgNKPg-9" value="Driver Management" style="whiteSpace=wrap;html=1;rounded=1;" vertex="1" parent="1">
          <mxGeometry x="130" y="1020" width="120" height="60" as="geometry" />
        </mxCell>
        <mxCell id="7G694Oz_WmN1lmUgNKPg-13" value="" style="edgeStyle=orthogonalEdgeStyle;rounded=0;orthogonalLoop=1;jettySize=auto;html=1;" edge="1" parent="1" source="7G694Oz_WmN1lmUgNKPg-10" target="7G694Oz_WmN1lmUgNKPg-12">
          <mxGeometry relative="1" as="geometry" />
        </mxCell>
        <mxCell id="7G694Oz_WmN1lmUgNKPg-15" value="" style="edgeStyle=orthogonalEdgeStyle;rounded=0;orthogonalLoop=1;jettySize=auto;html=1;" edge="1" parent="1" source="7G694Oz_WmN1lmUgNKPg-10" target="7G694Oz_WmN1lmUgNKPg-14">
          <mxGeometry relative="1" as="geometry" />
        </mxCell>
        <mxCell id="7G694Oz_WmN1lmUgNKPg-10" value="Send To Drivers" style="whiteSpace=wrap;html=1;rounded=1;" vertex="1" parent="1">
          <mxGeometry x="330" y="1020" width="120" height="60" as="geometry" />
        </mxCell>
        <mxCell id="7G694Oz_WmN1lmUgNKPg-12" value="Assumption Driver will refresh the page" style="ellipse;whiteSpace=wrap;html=1;rounded=1;" vertex="1" parent="1">
          <mxGeometry x="350" y="1110" width="80" height="80" as="geometry" />
        </mxCell>
        <mxCell id="7G694Oz_WmN1lmUgNKPg-17" value="" style="edgeStyle=orthogonalEdgeStyle;rounded=0;orthogonalLoop=1;jettySize=auto;html=1;" edge="1" parent="1" source="7G694Oz_WmN1lmUgNKPg-14" target="7G694Oz_WmN1lmUgNKPg-16">
          <mxGeometry relative="1" as="geometry" />
        </mxCell>
        <mxCell id="7G694Oz_WmN1lmUgNKPg-14" value="Driver Will accept order from list" style="whiteSpace=wrap;html=1;rounded=1;" vertex="1" parent="1">
          <mxGeometry x="530" y="1020" width="120" height="60" as="geometry" />
        </mxCell>
        <mxCell id="7G694Oz_WmN1lmUgNKPg-19" value="" style="edgeStyle=orthogonalEdgeStyle;rounded=0;orthogonalLoop=1;jettySize=auto;html=1;" edge="1" parent="1" source="7G694Oz_WmN1lmUgNKPg-16" target="7G694Oz_WmN1lmUgNKPg-18">
          <mxGeometry relative="1" as="geometry" />
        </mxCell>
        <mxCell id="7G694Oz_WmN1lmUgNKPg-16" value="Driver Managent&amp;nbsp;" style="whiteSpace=wrap;html=1;rounded=1;" vertex="1" parent="1">
          <mxGeometry x="730" y="1020" width="120" height="60" as="geometry" />
        </mxCell>
        <mxCell id="7G694Oz_WmN1lmUgNKPg-18" value="Order Mangement" style="whiteSpace=wrap;html=1;rounded=1;" vertex="1" parent="1">
          <mxGeometry x="1041" y="1020" width="120" height="60" as="geometry" />
        </mxCell>
        <mxCell id="7G694Oz_WmN1lmUgNKPg-20" value="Order id: ---&lt;div&gt;Driver id: ---&lt;/div&gt;&lt;div&gt;Assign Driver&lt;/div&gt;" style="text;html=1;align=center;verticalAlign=middle;resizable=0;points=[];autosize=1;strokeColor=none;fillColor=none;" vertex="1" parent="1">
          <mxGeometry x="900" y="1000" width="90" height="60" as="geometry" />
        </mxCell>
        <mxCell id="7G694Oz_WmN1lmUgNKPg-23" value="" style="edgeStyle=orthogonalEdgeStyle;rounded=0;orthogonalLoop=1;jettySize=auto;html=1;" edge="1" parent="1" source="7G694Oz_WmN1lmUgNKPg-21" target="7G694Oz_WmN1lmUgNKPg-22">
          <mxGeometry relative="1" as="geometry" />
        </mxCell>
        <mxCell id="7G694Oz_WmN1lmUgNKPg-21" value="Driver" style="rounded=1;whiteSpace=wrap;html=1;" vertex="1" parent="1">
          <mxGeometry x="130" y="1250" width="120" height="60" as="geometry" />
        </mxCell>
        <mxCell id="7G694Oz_WmN1lmUgNKPg-22" value="Order Management (Update Status)" style="whiteSpace=wrap;html=1;rounded=1;" vertex="1" parent="1">
          <mxGeometry x="330" y="1250" width="120" height="60" as="geometry" />
        </mxCell>
      </root>
    </mxGraphModel>
  </diagram>
  <diagram id="wbLmETJZUPSGOL-aLA7H" name="Page-2">
    <mxGraphModel dx="1381" dy="830" grid="1" gridSize="10" guides="1" tooltips="1" connect="1" arrows="1" fold="1" page="1" pageScale="1" pageWidth="1169" pageHeight="827" math="0" shadow="0">
      <root>
        <mxCell id="0" />
        <mxCell id="1" parent="0" />
        <mxCell id="wziGMGSFjVksGqR351ZL-26" style="edgeStyle=orthogonalEdgeStyle;rounded=0;orthogonalLoop=1;jettySize=auto;html=1;exitX=0.5;exitY=1;exitDx=0;exitDy=0;entryX=1;entryY=0.25;entryDx=0;entryDy=0;" edge="1" parent="1" source="wziGMGSFjVksGqR351ZL-1" target="wziGMGSFjVksGqR351ZL-18">
          <mxGeometry relative="1" as="geometry" />
        </mxCell>
        <mxCell id="wziGMGSFjVksGqR351ZL-1" value="Order Management" style="rounded=1;whiteSpace=wrap;html=1;" vertex="1" parent="1">
          <mxGeometry x="560" y="500" width="120" height="60" as="geometry" />
        </mxCell>
        <mxCell id="wziGMGSFjVksGqR351ZL-2" value="User Management" style="rounded=1;whiteSpace=wrap;html=1;" vertex="1" parent="1">
          <mxGeometry x="310" y="500" width="120" height="60" as="geometry" />
        </mxCell>
        <mxCell id="wziGMGSFjVksGqR351ZL-5" style="edgeStyle=orthogonalEdgeStyle;rounded=0;orthogonalLoop=1;jettySize=auto;html=1;exitX=1;exitY=0.3333333333333333;exitDx=0;exitDy=0;exitPerimeter=0;entryX=0;entryY=0.5;entryDx=0;entryDy=0;" edge="1" parent="1" source="wziGMGSFjVksGqR351ZL-3" target="wziGMGSFjVksGqR351ZL-2">
          <mxGeometry relative="1" as="geometry" />
        </mxCell>
        <mxCell id="wziGMGSFjVksGqR351ZL-3" value="User" style="shape=umlActor;verticalLabelPosition=bottom;verticalAlign=top;html=1;outlineConnect=0;" vertex="1" parent="1">
          <mxGeometry x="120" y="510" width="30" height="60" as="geometry" />
        </mxCell>
        <mxCell id="wziGMGSFjVksGqR351ZL-25" style="edgeStyle=orthogonalEdgeStyle;rounded=0;orthogonalLoop=1;jettySize=auto;html=1;exitX=1;exitY=0.75;exitDx=0;exitDy=0;entryX=0.25;entryY=1;entryDx=0;entryDy=0;" edge="1" parent="1" source="wziGMGSFjVksGqR351ZL-8" target="wziGMGSFjVksGqR351ZL-1">
          <mxGeometry relative="1" as="geometry" />
        </mxCell>
        <mxCell id="wziGMGSFjVksGqR351ZL-8" value="Restaurant Management" style="rounded=1;whiteSpace=wrap;html=1;" vertex="1" parent="1">
          <mxGeometry x="310" y="600" width="120" height="60" as="geometry" />
        </mxCell>
        <mxCell id="wziGMGSFjVksGqR351ZL-9" style="edgeStyle=orthogonalEdgeStyle;rounded=0;orthogonalLoop=1;jettySize=auto;html=1;exitX=1;exitY=0.3333333333333333;exitDx=0;exitDy=0;exitPerimeter=0;entryX=0;entryY=0.5;entryDx=0;entryDy=0;" edge="1" parent="1" source="wziGMGSFjVksGqR351ZL-10" target="wziGMGSFjVksGqR351ZL-8">
          <mxGeometry relative="1" as="geometry" />
        </mxCell>
        <mxCell id="wziGMGSFjVksGqR351ZL-16" style="edgeStyle=orthogonalEdgeStyle;rounded=0;orthogonalLoop=1;jettySize=auto;html=1;exitX=0.5;exitY=0.5;exitDx=0;exitDy=0;exitPerimeter=0;entryX=0;entryY=0.5;entryDx=0;entryDy=0;" edge="1" parent="1" source="wziGMGSFjVksGqR351ZL-10" target="wziGMGSFjVksGqR351ZL-15">
          <mxGeometry relative="1" as="geometry" />
        </mxCell>
        <mxCell id="wziGMGSFjVksGqR351ZL-10" value="Restaurant" style="shape=umlActor;verticalLabelPosition=bottom;verticalAlign=top;html=1;outlineConnect=0;" vertex="1" parent="1">
          <mxGeometry x="120" y="670" width="30" height="60" as="geometry" />
        </mxCell>
        <mxCell id="wziGMGSFjVksGqR351ZL-11" value="Driver User Management" style="rounded=1;whiteSpace=wrap;html=1;" vertex="1" parent="1">
          <mxGeometry x="310" y="790" width="120" height="60" as="geometry" />
        </mxCell>
        <mxCell id="wziGMGSFjVksGqR351ZL-12" style="edgeStyle=orthogonalEdgeStyle;rounded=0;orthogonalLoop=1;jettySize=auto;html=1;exitX=1;exitY=0.3333333333333333;exitDx=0;exitDy=0;exitPerimeter=0;entryX=0;entryY=0.5;entryDx=0;entryDy=0;" edge="1" parent="1" source="wziGMGSFjVksGqR351ZL-13" target="wziGMGSFjVksGqR351ZL-11">
          <mxGeometry relative="1" as="geometry" />
        </mxCell>
        <mxCell id="wziGMGSFjVksGqR351ZL-19" style="edgeStyle=orthogonalEdgeStyle;rounded=0;orthogonalLoop=1;jettySize=auto;html=1;exitX=0.5;exitY=0.5;exitDx=0;exitDy=0;exitPerimeter=0;entryX=0;entryY=0.5;entryDx=0;entryDy=0;" edge="1" parent="1" source="wziGMGSFjVksGqR351ZL-13" target="wziGMGSFjVksGqR351ZL-18">
          <mxGeometry relative="1" as="geometry" />
        </mxCell>
        <mxCell id="wziGMGSFjVksGqR351ZL-13" value="Driver" style="shape=umlActor;verticalLabelPosition=bottom;verticalAlign=top;html=1;outlineConnect=0;" vertex="1" parent="1">
          <mxGeometry x="120" y="837" width="30" height="60" as="geometry" />
        </mxCell>
        <mxCell id="wziGMGSFjVksGqR351ZL-20" style="edgeStyle=orthogonalEdgeStyle;rounded=0;orthogonalLoop=1;jettySize=auto;html=1;exitX=0.5;exitY=0.5;exitDx=0;exitDy=0;exitPerimeter=0;entryX=1;entryY=0.5;entryDx=0;entryDy=0;" edge="1" parent="1" source="wziGMGSFjVksGqR351ZL-14" target="wziGMGSFjVksGqR351ZL-2">
          <mxGeometry relative="1" as="geometry" />
        </mxCell>
        <mxCell id="wziGMGSFjVksGqR351ZL-21" style="edgeStyle=orthogonalEdgeStyle;rounded=0;orthogonalLoop=1;jettySize=auto;html=1;exitX=0.5;exitY=0.5;exitDx=0;exitDy=0;exitPerimeter=0;entryX=1;entryY=0.5;entryDx=0;entryDy=0;" edge="1" parent="1" source="wziGMGSFjVksGqR351ZL-14" target="wziGMGSFjVksGqR351ZL-8">
          <mxGeometry relative="1" as="geometry">
            <Array as="points">
              <mxPoint x="465" y="414" />
              <mxPoint x="465" y="630" />
            </Array>
          </mxGeometry>
        </mxCell>
        <mxCell id="wziGMGSFjVksGqR351ZL-22" style="edgeStyle=orthogonalEdgeStyle;rounded=0;orthogonalLoop=1;jettySize=auto;html=1;exitX=0.5;exitY=0.5;exitDx=0;exitDy=0;exitPerimeter=0;entryX=1;entryY=0.5;entryDx=0;entryDy=0;" edge="1" parent="1" source="wziGMGSFjVksGqR351ZL-14" target="wziGMGSFjVksGqR351ZL-15">
          <mxGeometry relative="1" as="geometry" />
        </mxCell>
        <mxCell id="wziGMGSFjVksGqR351ZL-23" style="edgeStyle=orthogonalEdgeStyle;rounded=0;orthogonalLoop=1;jettySize=auto;html=1;exitX=0.5;exitY=0.5;exitDx=0;exitDy=0;exitPerimeter=0;entryX=1;entryY=0.5;entryDx=0;entryDy=0;" edge="1" parent="1" source="wziGMGSFjVksGqR351ZL-14" target="wziGMGSFjVksGqR351ZL-11">
          <mxGeometry relative="1" as="geometry" />
        </mxCell>
        <mxCell id="wziGMGSFjVksGqR351ZL-24" style="edgeStyle=orthogonalEdgeStyle;rounded=0;orthogonalLoop=1;jettySize=auto;html=1;exitX=0.5;exitY=0.5;exitDx=0;exitDy=0;exitPerimeter=0;entryX=1;entryY=0.5;entryDx=0;entryDy=0;" edge="1" parent="1" source="wziGMGSFjVksGqR351ZL-14" target="wziGMGSFjVksGqR351ZL-18">
          <mxGeometry relative="1" as="geometry" />
        </mxCell>
        <mxCell id="wziGMGSFjVksGqR351ZL-28" style="edgeStyle=orthogonalEdgeStyle;rounded=0;orthogonalLoop=1;jettySize=auto;html=1;exitX=0.5;exitY=0.5;exitDx=0;exitDy=0;exitPerimeter=0;entryX=0.5;entryY=0;entryDx=0;entryDy=0;" edge="1" parent="1" source="wziGMGSFjVksGqR351ZL-14" target="wziGMGSFjVksGqR351ZL-1">
          <mxGeometry relative="1" as="geometry" />
        </mxCell>
        <mxCell id="wziGMGSFjVksGqR351ZL-29" style="edgeStyle=orthogonalEdgeStyle;rounded=0;orthogonalLoop=1;jettySize=auto;html=1;exitX=0.5;exitY=0.5;exitDx=0;exitDy=0;exitPerimeter=0;entryX=0.5;entryY=0;entryDx=0;entryDy=0;" edge="1" parent="1" source="wziGMGSFjVksGqR351ZL-14" target="wziGMGSFjVksGqR351ZL-17">
          <mxGeometry relative="1" as="geometry" />
        </mxCell>
        <mxCell id="wziGMGSFjVksGqR351ZL-14" value="Admin" style="shape=umlActor;verticalLabelPosition=bottom;verticalAlign=top;html=1;outlineConnect=0;" vertex="1" parent="1">
          <mxGeometry x="500" y="384" width="30" height="60" as="geometry" />
        </mxCell>
        <mxCell id="wziGMGSFjVksGqR351ZL-15" value="Menu Management" style="rounded=1;whiteSpace=wrap;html=1;" vertex="1" parent="1">
          <mxGeometry x="310" y="700" width="120" height="60" as="geometry" />
        </mxCell>
        <mxCell id="wziGMGSFjVksGqR351ZL-17" value="Payment Management" style="rounded=1;whiteSpace=wrap;html=1;" vertex="1" parent="1">
          <mxGeometry x="740" y="500" width="120" height="60" as="geometry" />
        </mxCell>
        <mxCell id="wziGMGSFjVksGqR351ZL-27" style="edgeStyle=orthogonalEdgeStyle;rounded=0;orthogonalLoop=1;jettySize=auto;html=1;exitX=1;exitY=0.75;exitDx=0;exitDy=0;entryX=0.75;entryY=1;entryDx=0;entryDy=0;" edge="1" parent="1" source="wziGMGSFjVksGqR351ZL-18" target="wziGMGSFjVksGqR351ZL-1">
          <mxGeometry relative="1" as="geometry" />
        </mxCell>
        <mxCell id="wziGMGSFjVksGqR351ZL-18" value="Driver Assignment Service" style="rounded=1;whiteSpace=wrap;html=1;" vertex="1" parent="1">
          <mxGeometry x="310" y="880" width="120" height="60" as="geometry" />
        </mxCell>
        <mxCell id="wziGMGSFjVksGqR351ZL-30" value="&lt;font style=&quot;font-size: 28px;&quot;&gt;Food Delivery API Architecture&lt;/font&gt;" style="text;html=1;align=center;verticalAlign=middle;resizable=0;points=[];autosize=1;strokeColor=none;fillColor=none;" vertex="1" parent="1">
          <mxGeometry x="240" y="300" width="400" height="50" as="geometry" />
        </mxCell>
        <mxCell id="wziGMGSFjVksGqR351ZL-31" value="Group: 28" style="text;html=1;align=center;verticalAlign=middle;resizable=0;points=[];autosize=1;strokeColor=none;fillColor=none;" vertex="1" parent="1">
          <mxGeometry x="760" y="950" width="80" height="30" as="geometry" />
        </mxCell>
      </root>
    </mxGraphModel>
  </diagram>
</mxfile>
